<mxfile host="app.diagrams.net" modified="2024-02-25T11:01:39.530Z" agent="Mozilla/5.0 (Windows NT 10.0; Win64; x64; rv:123.0) Gecko/20100101 Firefox/123.0" etag="L_nYL9a-9caztQdL8dMV" version="23.1.6" type="github">
  <diagram name="Page-1" id="2a216829-ef6e-dabb-86c1-c78162f3ba2b">
    <mxGraphModel dx="1282" dy="2110" grid="1" gridSize="10" guides="1" tooltips="1" connect="1" arrows="1" fold="1" page="1" pageScale="1" pageWidth="1654" pageHeight="1169" background="none" math="0" shadow="0">
      <root>
        <mxCell id="0" />
        <mxCell id="1" parent="0" />
        <mxCell id="GcvU1ehRJ1Iz8flA6ORL-1" value="Finance" style="swimlane;childLayout=stackLayout;resizeParent=1;resizeParentMax=0;horizontal=0;startSize=20;horizontalStack=0;html=1;" vertex="1" parent="1">
          <mxGeometry x="40" y="40" width="1080" height="120" as="geometry" />
        </mxCell>
        <mxCell id="GcvU1ehRJ1Iz8flA6ORL-2" value="Controle de Gestion" style="swimlane;startSize=20;horizontal=0;html=1;" vertex="1" parent="GcvU1ehRJ1Iz8flA6ORL-1">
          <mxGeometry x="20" width="1060" height="120" as="geometry" />
        </mxCell>
        <mxCell id="GcvU1ehRJ1Iz8flA6ORL-11" value="" style="edgeStyle=orthogonalEdgeStyle;rounded=0;orthogonalLoop=1;jettySize=auto;html=1;" edge="1" parent="GcvU1ehRJ1Iz8flA6ORL-2" source="GcvU1ehRJ1Iz8flA6ORL-9" target="GcvU1ehRJ1Iz8flA6ORL-10">
          <mxGeometry relative="1" as="geometry" />
        </mxCell>
        <mxCell id="GcvU1ehRJ1Iz8flA6ORL-9" value="" style="shape=ellipse;html=1;dashed=0;whiteSpace=wrap;perimeter=ellipsePerimeter;" vertex="1" parent="GcvU1ehRJ1Iz8flA6ORL-2">
          <mxGeometry x="50" y="45" width="30" height="30" as="geometry" />
        </mxCell>
        <mxCell id="GcvU1ehRJ1Iz8flA6ORL-10" value="Charger facture" style="html=1;dashed=0;whiteSpace=wrap;" vertex="1" parent="GcvU1ehRJ1Iz8flA6ORL-2">
          <mxGeometry x="120" y="35" width="100" height="50" as="geometry" />
        </mxCell>
        <mxCell id="GcvU1ehRJ1Iz8flA6ORL-5" value="Services" style="swimlane;childLayout=stackLayout;resizeParent=1;resizeParentMax=0;horizontal=0;startSize=20;horizontalStack=0;html=1;" vertex="1" parent="1">
          <mxGeometry x="40" y="200" width="1080" height="120" as="geometry" />
        </mxCell>
        <mxCell id="GcvU1ehRJ1Iz8flA6ORL-6" value="Responsable" style="swimlane;startSize=20;horizontal=0;html=1;" vertex="1" parent="GcvU1ehRJ1Iz8flA6ORL-5">
          <mxGeometry x="20" width="1060" height="120" as="geometry" />
        </mxCell>
        <mxCell id="GcvU1ehRJ1Iz8flA6ORL-12" value="Charge le fichier&lt;br&gt;Entre les informations de la commande" style="whiteSpace=wrap;html=1;rounded=1;arcSize=50;align=center;verticalAlign=middle;strokeWidth=1;autosize=1;spacing=4;treeFolding=1;treeMoving=1;newEdgeStyle={&quot;edgeStyle&quot;:&quot;entityRelationEdgeStyle&quot;,&quot;startArrow&quot;:&quot;none&quot;,&quot;endArrow&quot;:&quot;none&quot;,&quot;segment&quot;:10,&quot;curved&quot;:1,&quot;sourcePerimeterSpacing&quot;:0,&quot;targetPerimeterSpacing&quot;:0};" vertex="1" parent="1">
          <mxGeometry x="130" y="-50" width="260" height="50" as="geometry" />
        </mxCell>
        <mxCell id="GcvU1ehRJ1Iz8flA6ORL-13" value="" style="edgeStyle=entityRelationEdgeStyle;startArrow=none;endArrow=none;segment=10;curved=1;sourcePerimeterSpacing=0;targetPerimeterSpacing=0;rounded=0;" edge="1" target="GcvU1ehRJ1Iz8flA6ORL-12" parent="1" source="GcvU1ehRJ1Iz8flA6ORL-10">
          <mxGeometry relative="1" as="geometry">
            <mxPoint x="280" y="22" as="sourcePoint" />
          </mxGeometry>
        </mxCell>
      </root>
    </mxGraphModel>
  </diagram>
</mxfile>
